<?xml version="1.0" standalone="no"?><!DOCTYPE svg PUBLIC "-//W3C//DTD SVG 1.1//EN" "http://www.w3.org/Graphics/SVG/1.1/DTD/svg11.dtd"><svg t="1562390756128" class="icon" viewBox="0 0 1024 1024" version="1.1" xmlns="http://www.w3.org/2000/svg" p-id="2067" xmlns:xlink="http://www.w3.org/1999/xlink" width="200" height="200"><defs><style type="text/css"></style></defs><path d="M750.528 128L582.528 320H896l-144-192h-1.472zM273.472 128H272L128 320h313.472L273.472 128z m621.12 256H129.408L512 875.904 894.592 384zM230.4 76.8A32 32 0 0 1 256 64h512a32 32 0 0 1 25.6 12.8l192 256a32 32 0 0 1-0.32 38.848l-448 576a32 32 0 0 1-50.56 0l-448-576A32 32 0 0 1 38.4 332.8l192-256zM512 303.36L665.472 128H358.528L512 303.36z" p-id="2068"></path></svg>