<?xml version="1.0" standalone="no"?><!DOCTYPE svg PUBLIC "-//W3C//DTD SVG 1.1//EN" "http://www.w3.org/Graphics/SVG/1.1/DTD/svg11.dtd"><svg t="1562390783140" class="icon" viewBox="0 0 1024 1024" version="1.1" xmlns="http://www.w3.org/2000/svg" p-id="1706" xmlns:xlink="http://www.w3.org/1999/xlink" width="200" height="200"><defs><style type="text/css"></style></defs><path d="M998.3872 499.2c-6.1952 0-12.416-2.24-17.3312-6.7712L512 60.4032 42.944 492.4288a25.6 25.6 0 0 1-34.688-37.6576l486.4-448a25.6 25.6 0 0 1 34.6752 0l486.4 448A25.5872 25.5872 0 0 1 998.3872 499.2z" fill="#1296db" p-id="1707"></path><path d="M384 1024h-115.2c-84.6976 0-153.6-68.9024-153.6-153.6V367.488a25.6 25.6 0 0 1 51.2 0V870.4c0 56.4608 45.9392 102.4 102.4 102.4h115.2a25.6 25.6 0 0 1 0 51.2zM755.2 1024h-115.2a25.6 25.6 0 0 1 0-51.2h115.2c56.4608 0 102.4-45.9392 102.4-102.4V367.488a25.6 25.6 0 0 1 51.2 0V870.4c0 84.6976-68.9024 153.6-153.6 153.6z" fill="#1296db" p-id="1708"></path><path d="M640 1024a25.6 25.6 0 0 1-25.6-25.6V780.8a101.7344 101.7344 0 0 0-30.016-72.3968A101.7216 101.7216 0 0 0 512 678.4c-56.4608 0-102.4 45.9392-102.4 102.4v217.6a25.6 25.6 0 0 1-51.2 0V780.8c0-84.6976 68.9024-153.6 153.6-153.6 40.9984 0 79.5648 15.9744 108.5952 44.992A152.6272 152.6272 0 0 1 665.6 780.8v217.6a25.6 25.6 0 0 1-25.6 25.6z" fill="#1296db" p-id="1709"></path></svg>