<?xml version="1.0" standalone="no"?><!DOCTYPE svg PUBLIC "-//W3C//DTD SVG 1.1//EN" "http://www.w3.org/Graphics/SVG/1.1/DTD/svg11.dtd"><svg t="1562390700498" class="icon" viewBox="0 0 1024 1024" version="1.1" xmlns="http://www.w3.org/2000/svg" p-id="1914" xmlns:xlink="http://www.w3.org/1999/xlink" width="200" height="200"><defs><style type="text/css"></style></defs><path d="M76.608 482.56L512 669.184l435.392-186.624a32 32 0 1 1 25.216 58.88l-448 192a32 32 0 0 1-25.216 0l-448-192a32 32 0 0 1 25.216-58.88zM512 861.184l435.392-186.624a32 32 0 0 1 25.216 58.88l-448 192a32 32 0 0 1-25.216 0l-448-192a32 32 0 1 1 25.216-58.88L512 861.184zM499.392 98.56a32 32 0 0 1 25.216 0l448 192a32 32 0 0 1 0 58.88l-448 192a32 32 0 0 1-25.216 0l-448-192a32 32 0 0 1 0-58.88l448-192zM512 162.816L145.28 320 512 477.184 878.72 320 512 162.816z" p-id="1915" fill="#1296db"></path></svg>